<?xml version="1.0" standalone="no"?>
<!DOCTYPE svg PUBLIC "-//W3C//DTD SVG 20010904//EN"
 "http://www.w3.org/TR/2001/REC-SVG-20010904/DTD/svg10.dtd">
<svg version="1.0" xmlns="http://www.w3.org/2000/svg"
 width="400.000000pt" height="400.000000pt" viewBox="0 0 400.000000 400.000000"
 preserveAspectRatio="xMidYMid meet">
<metadata>
Created by potrace 1.11, written by Peter Selinger 2001-2013
</metadata>
<g transform="translate(0.000000,400.000000) scale(0.100000,-0.100000)"
fill="#000000" stroke="none">
<path d="M610 3991 c-14 -4 -154 -6 -312 -5 l-288 1 0 -1994 0 -1993 1995 0
1995 0 0 1993 0 1993 -997 -1 c-549 0 -1003 3 -1010 8 -6 4 -13 4 -16 0 -6
-10 -374 -9 -383 0 -4 4 -14 1 -22 -6 -13 -10 -14 -9 -7 2 6 10 4 12 -5 6 -16
-10 -875 -14 -905 -4 -11 3 -31 3 -45 0z"/>
</g>
</svg>
